<?xml version="1.0" encoding="UTF-8" standalone="no"?>
<!DOCTYPE svg PUBLIC "-//W3C//DTD SVG 1.1//EN" "http://www.w3.org/Graphics/SVG/1.1/DTD/svg11.dtd">
<svg width="100%" height="100%" viewBox="0 0 999 400" version="1.1" xmlns="http://www.w3.org/2000/svg" xmlns:xlink="http://www.w3.org/1999/xlink" xml:space="preserve" xmlns:serif="http://www.serif.com/" style="fill-rule:evenodd;clip-rule:evenodd;stroke-linejoin:round;stroke-miterlimit:2;">
    <g transform="matrix(1,0,0,1,-100.6,-100.000088)">
        <g id="g2" transform="matrix(1,0,0,1,-3.691589,3.497528)">
            <g id="text1">
                <g transform="matrix(1,0,0,1,604.091589,400.50256)">
                    <path d="M-420.2,4C-433.267,4 -444.8,2.667 -454.8,0C-464.8,-2.667 -473.133,-6.533 -479.8,-11.6C-486.467,-16.667 -491.467,-22.667 -494.8,-29.6C-498.133,-36.533 -499.8,-44.133 -499.8,-52.4C-499.8,-57.733 -498.667,-62.4 -496.4,-66.4C-494.133,-70.4 -490.867,-73.533 -486.6,-75.8C-482.333,-78.067 -477.133,-79.2 -471,-79.2C-470.467,-68.267 -468.333,-57.933 -464.6,-48.2C-460.867,-38.467 -455.133,-30.6 -447.4,-24.6C-439.667,-18.6 -429.533,-15.6 -417,-15.6C-399.133,-15.6 -385.133,-19.933 -375,-28.6C-364.867,-37.267 -359.8,-49.733 -359.8,-66C-359.8,-75.867 -361.733,-84.2 -365.6,-91C-369.467,-97.8 -375.867,-104.133 -384.8,-110C-393.733,-115.867 -406.067,-122 -421.8,-128.4C-438.333,-135.333 -452.067,-142.8 -463,-150.8C-473.933,-158.8 -482.067,-168.2 -487.4,-179C-492.733,-189.8 -495.4,-202.533 -495.4,-217.2C-495.4,-232.4 -491.6,-245.4 -484,-256.2C-476.4,-267 -466,-275.267 -452.8,-281C-439.6,-286.733 -424.6,-289.6 -407.8,-289.6C-391.8,-289.6 -378.267,-287.467 -367.2,-283.2C-356.133,-278.933 -347.667,-273.4 -341.8,-266.6C-335.933,-259.8 -333,-252.533 -333,-244.8C-333,-236.267 -335.867,-229.8 -341.6,-225.4C-347.333,-221 -355,-218.8 -364.6,-218.8C-364.6,-227.067 -366,-235.067 -368.8,-242.8C-371.6,-250.533 -376.267,-256.933 -382.8,-262C-389.333,-267.067 -398.2,-269.6 -409.4,-269.6C-424.867,-269.6 -436.867,-265.467 -445.4,-257.2C-453.933,-248.933 -458.2,-237.867 -458.2,-224C-458.2,-213.333 -456.267,-204.333 -452.4,-197C-448.533,-189.667 -442.067,-183.133 -433,-177.4C-423.933,-171.667 -411.667,-165.6 -396.2,-159.2C-380.467,-152.8 -367.067,-145.8 -356,-138.2C-344.933,-130.6 -336.467,-121.867 -330.6,-112C-324.733,-102.133 -321.8,-90.267 -321.8,-76.4C-321.8,-59.333 -325.8,-44.867 -333.8,-33C-341.8,-21.133 -353.2,-12 -368,-5.6C-382.8,0.8 -400.2,4 -420.2,4Z" style="fill:rgb(181,212,244);fill-rule:nonzero;"/>
                    <path d="M-318.2,0L-318.2,-16.8L-315,-16.8C-308.867,-16.8 -303.333,-17.467 -298.4,-18.8C-293.467,-20.133 -289.533,-22.867 -286.6,-27C-283.667,-31.133 -282.2,-37.333 -282.2,-45.6L-282.2,-260C-282.2,-268 -283.733,-273.933 -286.8,-277.8C-289.867,-281.667 -293.867,-284.2 -298.8,-285.4C-303.733,-286.6 -309.133,-287.2 -315,-287.2L-318.2,-287.2L-318.2,-304L-244.6,-304L-244.6,-149.6C-244.6,-146.133 -244.667,-141.6 -244.8,-136C-244.933,-130.4 -245.133,-124.8 -245.4,-119.2C-245.667,-113.6 -245.867,-108.867 -246,-105C-246.133,-101.133 -246.2,-99.2 -246.2,-99.2L-196.2,-154C-190.333,-160.4 -185.867,-165.8 -182.8,-170.2C-179.733,-174.6 -177.533,-178.333 -176.2,-181.4C-174.867,-184.467 -174.2,-187.2 -174.2,-189.6C-174.2,-193.067 -175.8,-195.267 -179,-196.2C-182.2,-197.133 -187.133,-197.6 -193.8,-197.6L-193.8,-214.4L-105.4,-214.4L-105.4,-197.6C-109.933,-197.6 -114.467,-196.8 -119,-195.2C-123.533,-193.6 -128.067,-191.2 -132.6,-188C-137.133,-184.8 -141.8,-180.867 -146.6,-176.2C-151.4,-171.533 -156.467,-166.267 -161.8,-160.4L-189.8,-128.8L-136.6,-49.6C-129.667,-38.933 -122.8,-30.8 -116,-25.2C-109.2,-19.6 -101.267,-16.8 -92.2,-16.8L-91,-16.8L-91,0L-96.6,0C-108.067,0 -117.667,-0.4 -125.4,-1.2C-133.133,-2 -139.6,-3.667 -144.8,-6.2C-150,-8.733 -154.933,-12.6 -159.6,-17.8C-164.267,-23 -169.4,-30 -175,-38.8L-215,-101.6L-244.6,-79.6L-244.6,-43.6C-244.6,-35.867 -243.067,-30.067 -240,-26.2C-236.933,-22.333 -232.933,-19.8 -228,-18.6C-223.067,-17.4 -217.667,-16.8 -211.8,-16.8L-210.6,-16.8L-210.6,0L-318.2,0Z" style="fill:rgb(181,212,244);fill-rule:nonzero;"/>
                    <path d="M-8.6,4C-37.4,4 -60.067,-5.2 -76.6,-23.6C-93.133,-42 -101.4,-70 -101.4,-107.6C-101.4,-144.933 -93.467,-172.733 -77.6,-191C-61.733,-209.267 -38.333,-218.4 -7.4,-218.4C21.4,-218.4 44.067,-209.267 60.6,-191C77.133,-172.733 85.4,-144.933 85.4,-107.6C85.4,-70 77.467,-42 61.6,-23.6C45.733,-5.2 22.333,4 -8.6,4ZM-7.8,-16.8C5.533,-16.8 16.2,-20.2 24.2,-27C32.2,-33.8 37.933,-44 41.4,-57.6C44.867,-71.2 46.6,-87.867 46.6,-107.6C46.6,-137.467 42.467,-159.867 34.2,-174.8C25.933,-189.733 11.8,-197.2 -8.2,-197.2C-28.2,-197.2 -42.267,-189.733 -50.4,-174.8C-58.533,-159.867 -62.6,-137.467 -62.6,-107.6C-62.6,-77.733 -58.467,-55.133 -50.2,-39.8C-41.933,-24.467 -27.8,-16.8 -7.8,-16.8Z" style="fill:rgb(181,212,244);fill-rule:nonzero;"/>
                    <path d="M90.6,96L90.6,79.2L93.8,79.2C99.933,79.2 105.467,78.533 110.4,77.2C115.333,75.867 119.267,73.133 122.2,69C125.133,64.867 126.6,58.667 126.6,50.4L126.6,-170.4C126.6,-178.4 125.067,-184.333 122,-188.2C118.933,-192.067 114.933,-194.6 110,-195.8C105.067,-197 99.667,-197.6 93.8,-197.6L88.6,-197.6L88.6,-214.4L158.6,-214.4L162.6,-178.4L164.2,-178.4C170.333,-190.667 178.2,-200.4 187.8,-207.6C197.4,-214.8 209.933,-218.4 225.4,-218.4C251.8,-218.4 272,-209.533 286,-191.8C300,-174.067 307,-146 307,-107.6C307,-68.933 300,-40.667 286,-22.8C272,-4.933 251.8,4 225.4,4C209.933,4 197.333,0.733 187.6,-5.8C177.867,-12.333 170.067,-20.8 164.2,-31.2L162.6,-31.2C163.133,-23.467 163.533,-15.267 163.8,-6.6C164.067,2.067 164.2,8.933 164.2,14L164.2,52.4C164.2,60.133 165.733,65.933 168.8,69.8C171.867,73.667 175.867,76.2 180.8,77.4C185.733,78.6 191.133,79.2 197,79.2L198.2,79.2L198.2,96L90.6,96ZM219,-21.6C236.6,-21.6 249.2,-29 256.8,-43.8C264.4,-58.6 268.2,-80 268.2,-108C268.2,-136.533 264.4,-157.8 256.8,-171.8C249.2,-185.8 236.467,-192.8 218.6,-192.8C204.733,-192.8 193.867,-189.733 186,-183.6C178.133,-177.467 172.533,-168.067 169.2,-155.4C165.867,-142.733 164.2,-126.8 164.2,-107.6C164.2,-89.2 165.867,-73.6 169.2,-60.8C172.533,-48 178.2,-38.267 186.2,-31.6C194.2,-24.933 205.133,-21.6 219,-21.6Z" style="fill:rgb(181,212,244);fill-rule:nonzero;"/>
                    <path d="M419.8,4C390.733,4 368,-5.6 351.6,-24.8C335.2,-44 327,-70.933 327,-105.6C327,-142.933 334.733,-171.067 350.2,-190C365.667,-208.933 387.533,-218.4 415.8,-218.4C441.667,-218.4 462,-210.4 476.8,-194.4C491.6,-178.4 499,-154.533 499,-122.8L499,-104.4L365.8,-104.4C366.333,-75.333 371.6,-54.2 381.6,-41C391.6,-27.8 406.2,-21.2 425.4,-21.2C439.267,-21.2 451.067,-24.067 460.8,-29.8C470.533,-35.533 477.8,-42 482.6,-49.2C484.467,-48.4 486.2,-46.8 487.8,-44.4C489.4,-42 490.2,-39.067 490.2,-35.6C490.2,-30.267 487.667,-24.533 482.6,-18.4C477.533,-12.267 469.8,-7 459.4,-2.6C449,1.8 435.8,4 419.8,4ZM458.6,-126C458.6,-147.333 455.333,-164.467 448.8,-177.4C442.267,-190.333 431,-196.8 415,-196.8C400.333,-196.8 388.933,-190.733 380.8,-178.6C372.667,-166.467 367.933,-148.933 366.6,-126L458.6,-126Z" style="fill:rgb(181,212,244);fill-rule:nonzero;"/>
                </g>
            </g>
            <path id="text2" d="M596.405,256.701C586.238,256.701 578.525,259.724 573.266,265.772C568.094,271.732 565.509,280.848 565.509,293.119C565.509,305.477 568.226,314.68 573.66,320.728C579.094,326.776 586.544,329.8 596.01,329.8C606.178,329.8 613.847,326.776 619.018,320.728C624.277,314.68 626.907,305.477 626.907,293.119C626.907,280.848 624.19,271.732 618.756,265.772C613.321,259.724 605.871,256.701 596.405,256.701Z" style="fill:rgb(181,212,244);fill-rule:nonzero;"/>
        </g>
    </g>
</svg>
