<?xml version="1.0" encoding="UTF-8" standalone="no"?>
<!-- Created with Inkscape (http://www.inkscape.org/) -->

<svg
   width="1200"
   height="473"
   viewBox="0 0 1200 473"
   version="1.1"
   id="svg1"
   xmlns="http://www.w3.org/2000/svg"
   xmlns:svg="http://www.w3.org/2000/svg">
  <defs
     id="defs1" />
  <g
     id="layer1">
    <g
       id="g2"
       transform="matrix(1.1824992,0,0,1.1824992,-113.86482,-114.11394)"
       style="fill:#85b7eb;fill-opacity:1">
      <text
         xml:space="preserve"
         style="font-style:normal;font-variant:normal;font-weight:normal;font-stretch:normal;font-size:400px;font-family:'Noto Serif';-inkscape-font-specification:'Noto Serif';font-feature-settings:'ss03';text-align:center;letter-spacing:-20px;writing-mode:lr-tb;direction:ltr;text-anchor:middle;fill:#85b7eb;fill-opacity:1;stroke:none;stroke-width:72;stroke-linecap:round;stroke-linejoin:round"
         x="604.09137"
         y="400.50256"
         id="text1"><tspan
           id="tspan1"
           x="594.09137"
           y="400.50256"
           style="font-style:normal;font-variant:normal;font-weight:normal;font-stretch:normal;font-size:400px;font-family:'Noto Serif';-inkscape-font-specification:'Noto Serif';letter-spacing:-20px;fill:#85b7eb;fill-opacity:1;stroke:none;stroke-opacity:1"
           dx="0">Skope</tspan></text>
      <path
         id="text2"
         style="font-size:400px;font-family:'Noto Serif';-inkscape-font-specification:'Noto Serif';font-feature-settings:'ss03';text-align:center;letter-spacing:-20px;text-anchor:middle;fill:#85b7eb;fill-opacity:1;stroke-width:23.6653;stroke-linecap:round;stroke-linejoin:round"
         d="m 596.40518,256.7007 c -10.1673,0 -17.88056,3.02376 -23.1395,9.07156 -5.1713,5.96014 -7.75683,15.0754 -7.75683,27.34628 0,12.35853 2.71675,21.56169 8.15099,27.60949 5.43425,6.04779 12.88443,9.07156 22.35054,9.07156 10.1673,0 17.8366,-3.02377 23.00791,-9.07156 5.25894,-6.0478 7.88841,-15.25096 7.88841,-27.60949 0,-12.27088 -2.71673,-21.38614 -8.15098,-27.34628 -5.43425,-6.0478 -12.88443,-9.07156 -22.35054,-9.07156 z" />
    </g>
  </g>
</svg>
